<svg id="svg" version="1.1" xmlns="http://www.w3.org/2000/svg" xmlns:xlink="http://www.w3.org/1999/xlink" width="400" height="400" viewBox="0, 0, 400,400"><g id="svgg"><path id="path0" d="M191.600 108.826 C 132.292 111.879,81.984 152.663,65.816 210.800 C 63.664 218.539,63.557 218.803,61.773 220.777 C 59.192 223.634,59.561 223.600,31.188 223.600 C 17.401 223.600,4.744 223.716,3.060 223.859 L 0.000 224.117 0.000 246.810 C 0.000 271.434,-0.071 270.572,2.237 273.968 C 3.178 275.353,3.542 275.415,2.855 274.074 C 1.860 272.127,1.950 270.973,2.971 272.600 C 3.523 273.480,3.981 273.964,3.988 273.676 C 3.994 273.388,4.181 273.265,4.403 273.402 C 4.624 273.539,4.918 273.359,5.054 273.002 C 5.191 272.646,5.550 272.449,5.852 272.564 C 6.153 272.680,6.400 272.601,6.400 272.387 C 6.400 272.174,6.535 272.028,6.700 272.062 C 6.865 272.096,7.669 271.826,8.487 271.462 C 9.305 271.098,10.235 270.800,10.554 270.800 C 10.873 270.800,11.200 270.600,11.282 270.355 C 11.641 269.278,28.747 269.185,204.800 269.302 C 395.736 269.429,389.529 269.373,391.600 270.980 C 392.570 271.732,394.134 272.283,395.083 272.207 C 395.569 272.168,396.063 272.387,396.181 272.693 C 396.299 273.001,396.605 273.120,396.865 272.960 C 397.183 272.763,397.253 272.885,397.081 273.334 C 396.565 274.678,397.212 273.947,398.174 272.100 C 399.377 269.788,399.492 270.404,398.395 273.285 C 397.756 274.962,397.724 275.234,398.237 274.600 C 399.998 272.426,400.000 272.403,400.000 247.672 L 400.000 224.117 396.940 223.859 C 395.256 223.716,382.329 223.600,368.212 223.600 C 334.699 223.600,336.256 224.085,333.391 212.754 C 317.228 148.834,257.983 105.410,191.600 108.826 " stroke="none" fill="#f3c34c" fill-rule="evenodd"></path><path id="path1" d="M123.800 2.754 C 101.779 11.466,79.430 24.668,64.345 37.878 C 35.037 63.541,16.731 89.059,2.544 124.024 L 0.200 129.800 0.095 176.800 L -0.010 223.800 28.095 223.686 C 65.026 223.535,61.985 224.574,65.816 210.800 C 92.734 114.009,208.078 76.694,286.369 139.448 C 309.258 157.795,326.155 184.137,333.391 212.754 C 336.270 224.140,334.184 223.538,371.300 223.686 L 400.000 223.800 399.999 176.000 L 399.998 128.200 398.042 123.200 C 375.867 66.524,332.237 23.869,273.313 1.261 L 270.026 0.000 200.313 0.032 L 130.600 0.064 123.800 2.754 M15.422 269.591 C 12.968 269.761,11.385 270.045,11.289 270.333 C 11.203 270.590,10.873 270.800,10.554 270.800 C 10.235 270.800,9.305 271.098,8.487 271.462 C 7.669 271.826,6.865 272.096,6.700 272.062 C 6.535 272.028,6.400 272.174,6.400 272.387 C 6.400 272.601,6.153 272.680,5.852 272.564 C 5.550 272.449,5.191 272.646,5.054 273.002 C 4.918 273.359,4.624 273.539,4.403 273.402 C 4.181 273.265,3.994 273.388,3.988 273.676 C 3.981 273.964,3.523 273.480,2.971 272.600 C 1.950 270.973,1.860 272.127,2.855 274.074 C 3.619 275.566,3.125 275.292,2.000 273.600 C 0.357 271.128,0.467 271.605,3.045 278.124 C 20.528 322.336,50.798 357.880,92.138 382.739 C 102.306 388.853,107.955 391.596,123.884 398.154 L 128.367 400.000 200.568 400.000 L 272.769 400.000 279.557 397.218 C 297.566 389.836,316.822 379.054,327.400 370.429 C 328.940 369.174,331.640 367.097,333.400 365.814 C 358.558 347.478,384.069 312.738,397.964 277.893 C 399.778 273.345,400.860 269.426,399.427 272.600 C 398.324 275.041,397.524 275.572,398.395 273.285 C 399.492 270.404,399.377 269.788,398.174 272.100 C 397.212 273.947,396.565 274.678,397.081 273.334 C 397.253 272.885,397.183 272.763,396.865 272.960 C 396.605 273.120,396.299 273.001,396.181 272.693 C 396.063 272.387,395.569 272.168,395.083 272.207 C 394.134 272.283,392.570 271.732,391.600 270.980 C 389.527 269.372,395.866 269.426,203.400 269.370 C 102.200 269.341,17.610 269.440,15.422 269.591 " stroke="none" fill="#1b338c" fill-rule="evenodd"></path></g></svg>